<svg xmlns="http://www.w3.org/2000/svg" width="721" height="536" fill="none"><path fill="#EEE" fill-rule="evenodd" d="M65.07 0h-.1l-.08.03-81.77 31.27-.08.03-.06.05-94.6 78.57-.38.31.3.38 415.18 529.58v2.3l.9-1.14h.01l.9 1.14v-2.3l415.18-529.58.3-.38-.38-.3-94.6-78.58-.06-.05-.08-.03L543.88.03l-.1-.03H65.09Zm238.91 1H72.77l231.61 30.21L536 1H303.99Zm1.3 179.5V33.03l142.73 77.27-142.72 70.18Zm0 456.7V182.2h218.38L305.3 637.2Zm-1.8-604.16-142.72 77.27 142.72 70.18V33.04Zm0 149.15H85.11L303.48 637.2V182.19ZM-14 31.27 65.13 1 297.1 31.27H-14Zm-.35 1H302.8l-143.16 77.5-174-77.5Zm-95.57 77.56h267.24L-16.62 32.35l-93.3 77.48Zm412.27 527.33L-109.83 111.4l193.78 70.68 218.4 455.07ZM85.57 181.19h217.06l-142.87-70.25-74.2 70.25Zm-194.05-70.36L84.2 181.12l74.23-70.28h-266.9Zm731.25-79.56L543.63 1 311.68 31.27h311.08Zm.35 1H305.96l143.16 77.5 174-77.5Zm95.57 77.56H451.45l173.94-77.48 93.3 77.48ZM306.42 637.16 718.6 111.4l-193.78 70.68-218.4 455.07ZM523.2 181.19H306.13L449 110.94l74.2 70.25Zm194.04-70.36-192.66 70.28-74.23-70.28h266.9Z" clip-rule="evenodd" opacity=".8"/></svg>