<svg xmlns="http://www.w3.org/2000/svg" width="183" height="54" fill="none"><path fill="#919191" d="M7.18 46.95v.72H4.2v-.72h2.98ZM4.86 43.6V51h-.77v-7.4h.77Zm1.7 3.8v-.21c0-.54.07-1.03.2-1.48.13-.46.32-.85.57-1.18.24-.34.53-.6.87-.78.34-.19.72-.28 1.14-.28.42 0 .8.09 1.15.28.35.18.64.44.88.78.25.33.44.72.56 1.18.14.45.2.94.2 1.48v.21c0 .55-.06 1.05-.2 1.5-.12.45-.31.85-.56 1.18a2.4 2.4 0 0 1-2.02 1.05 2.43 2.43 0 0 1-2.03-1.05 3.9 3.9 0 0 1-.56-1.18c-.13-.45-.2-.95-.2-1.5Zm.77-.2v.22c0 .4.04.78.13 1.15.08.36.21.68.38.95.17.28.38.5.64.66.25.16.54.24.87.24.32 0 .61-.08.86-.23.26-.16.47-.38.64-.67.17-.28.3-.6.39-.96.09-.36.13-.74.13-1.15v-.22c0-.4-.04-.77-.13-1.13a3.21 3.21 0 0 0-.4-.97 2 2 0 0 0-.63-.67 1.55 1.55 0 0 0-.87-.24c-.32 0-.61.08-.86.24-.26.17-.47.4-.64.67-.17.28-.3.6-.38.97-.09.36-.13.74-.13 1.13Zm13.1.4h-2.16v-.7h1.81c.37 0 .67-.06.91-.15.25-.1.43-.24.56-.43.12-.2.19-.44.19-.72 0-.22-.04-.42-.11-.57a.98.98 0 0 0-.33-.4c-.14-.11-.32-.19-.53-.24a3 3 0 0 0-.74-.08h-1.55V51h-.76v-7.4h2.3c.4 0 .73.04 1.03.13.3.07.57.2.78.36.22.16.38.36.5.6a2.08 2.08 0 0 1 .06 1.52 1.62 1.62 0 0 1-.85.92c-.2.1-.44.16-.71.18l-.4.29Zm-.01 3.4h-2.4l.32-.71h2.08c.34 0 .62-.05.85-.16.23-.1.41-.26.53-.46.12-.2.18-.45.18-.75 0-.27-.06-.5-.18-.7-.12-.2-.3-.35-.53-.46-.23-.11-.51-.16-.85-.16h-1.59l.02-.7h2.03l.31.26c.32.03.6.13.82.3.23.17.41.38.54.64.13.26.2.54.2.84 0 .34-.06.65-.17.9-.11.26-.27.47-.47.64-.2.17-.45.3-.74.39-.28.09-.6.13-.95.13Zm10.32.14c-.41 0-.79-.06-1.14-.2a2.4 2.4 0 0 1-.88-.61 2.92 2.92 0 0 1-.58-1.05 4.9 4.9 0 0 1-.2-1.5v-.85a5 5 0 0 1 .22-1.57c.14-.44.34-.8.58-1.08.25-.28.54-.49.86-.62.32-.13.65-.2 1.01-.2.4 0 .76.07 1.07.2.3.14.57.34.78.6.2.28.36.62.47 1.03.1.4.15.88.15 1.44v.63H28.4v-.7h3.93v-.2c-.01-.48-.08-.9-.2-1.23-.13-.34-.32-.6-.57-.78a1.54 1.54 0 0 0-.94-.27c-.29 0-.55.05-.78.16-.24.1-.44.25-.62.47-.17.22-.3.5-.39.86-.08.35-.13.77-.13 1.26v.86c0 .45.05.84.15 1.17.1.33.24.6.42.82.18.22.4.38.66.49a2.46 2.46 0 0 0 1.85-.03c.29-.14.54-.34.76-.6l.4.5a2.46 2.46 0 0 1-1.22.86c-.27.1-.6.14-.98.14ZM42.7 43.6v.72h-3.12v-.72h3.12Zm.63 0V51h-.76v-7.4h.76Zm-3.95 0h.77L40 47.08c-.03.56-.06 1.06-.11 1.49-.05.42-.13.8-.22 1.1-.1.31-.21.57-.35.76-.14.2-.31.34-.5.43-.2.1-.42.14-.68.14h-.27v-.75h.21a1 1 0 0 0 .43-.13.88.88 0 0 0 .3-.35c.1-.16.18-.37.24-.63.05-.26.1-.58.13-.95s.06-.82.08-1.33l.12-3.26Zm10.64 6.05 3.25-6.05h.77V51h-.77v-6.05L50.02 51h-.76v-7.4h.76v6.05Zm10.63-4.62v8.81h-.76V43.6h.7l.06 1.43Zm4.3 1.93v.69c0 .6-.06 1.11-.16 1.55-.1.44-.26.8-.47 1.09-.2.29-.45.5-.75.64-.29.14-.62.21-1 .21-.37 0-.7-.06-.97-.19-.29-.13-.53-.3-.73-.54-.2-.23-.35-.51-.47-.82-.12-.32-.2-.68-.25-1.06v-2.27c.05-.42.14-.8.26-1.15.13-.34.29-.63.48-.88a2.01 2.01 0 0 1 1.66-.76c.39 0 .73.06 1.02.2.3.12.55.33.75.61.2.28.36.64.47 1.09a7 7 0 0 1 .16 1.59Zm-.76.69v-.69c0-.48-.04-.89-.11-1.23a2.48 2.48 0 0 0-.34-.86c-.14-.23-.33-.4-.56-.5-.23-.12-.5-.18-.81-.18a1.67 1.67 0 0 0-1.37.64c-.15.19-.27.4-.36.63-.09.22-.15.44-.2.66v2.59c.09.3.2.58.36.85.15.26.36.47.62.63.26.16.58.24.96.24.31 0 .58-.06.8-.17.23-.11.42-.28.56-.51.15-.23.26-.52.34-.87.07-.35.1-.76.1-1.23Zm10.53-.75v.72h-3.6v-.72h3.6Zm-3.41-3.3V51h-.77v-7.4h.77Zm4 0V51h-.75v-7.4h.76Zm6.47 2.68h1.98c.5 0 .91.1 1.25.3.34.2.6.49.77.84a2.86 2.86 0 0 1 .12 2.14 2 2 0 0 1-1.16 1.26c-.28.12-.6.18-.98.18h-2.5v-7.4h.77v6.68h1.74c.37 0 .66-.08.88-.23.22-.16.38-.36.48-.6a2.12 2.12 0 0 0 0-1.59c-.1-.25-.26-.46-.48-.62a1.44 1.44 0 0 0-.89-.25h-1.98v-.71Zm6.4-2.68V51h-.77v-7.4h.76Zm6.76 6.05 3.26-6.05h.76V51h-.76v-6.05L94.94 51h-.76v-7.4h.76v6.05Zm2.89-8.71h.7a1.65 1.65 0 0 1-.92 1.54c-.3.15-.65.23-1.06.23-.61 0-1.1-.17-1.45-.5a1.68 1.68 0 0 1-.53-1.27h.7c0 .31.1.59.3.82.18.23.51.34.98.34.46 0 .79-.11.98-.34.2-.23.3-.5.3-.82Zm17.4 8.93 2.4-6.27h.75L115.5 51h-.54l-2.88-7.4h.75l2.4 6.27Zm-2.63-6.27V51h-.76v-7.4h.77Zm5.2 7.4v-7.4h.77V51h-.76Zm10.4-1.33v-4.02c0-.35-.05-.63-.17-.84-.12-.22-.3-.38-.52-.48-.23-.1-.51-.15-.84-.15-.32 0-.6.06-.84.19a1.39 1.39 0 0 0-.77 1.28h-.76a2.1 2.1 0 0 1 .66-1.51c.2-.22.46-.38.75-.5a3.06 3.06 0 0 1 2.16.03c.34.15.6.38.8.7.2.33.3.76.3 1.3v3.77c0 .26 0 .53.04.8s.09.5.14.67V51h-.8a2.95 2.95 0 0 1-.11-.6 7.86 7.86 0 0 1-.04-.73Zm.16-2.99.02.65h-1.31c-.36 0-.67.04-.94.12-.27.07-.5.18-.67.33-.18.15-.32.32-.4.52-.1.2-.14.43-.14.68 0 .33.05.6.15.81.1.2.26.36.46.46.2.1.45.14.73.14a2.04 2.04 0 0 0 2.04-1.6l.21.46c-.04.21-.13.42-.25.64a2.4 2.4 0 0 1-1.18 1.07c-.27.12-.57.18-.9.18-.41 0-.77-.07-1.07-.23-.3-.15-.54-.39-.7-.7a2.5 2.5 0 0 1-.25-1.17c0-.34.05-.65.17-.94.12-.29.3-.53.52-.74.24-.22.53-.38.88-.5s.76-.18 1.22-.18h1.41Zm10.36-3.08v.72h-3.08V51h-.76v-7.4h3.84Zm8.88 6.07v-4.02c0-.35-.06-.63-.17-.84-.12-.22-.3-.38-.52-.48a2.1 2.1 0 0 0-.84-.15c-.32 0-.6.06-.84.19a1.38 1.38 0 0 0-.77 1.28h-.76a2.11 2.11 0 0 1 .66-1.51c.2-.22.46-.38.75-.5a3.06 3.06 0 0 1 2.16.03c.34.15.6.38.8.7.2.33.3.76.3 1.3v3.77c0 .26 0 .53.04.8s.09.5.14.67V51h-.8a3.02 3.02 0 0 1-.11-.6 7.86 7.86 0 0 1-.04-.73Zm.16-2.99.02.65h-1.31c-.36 0-.67.04-.94.12-.27.07-.5.18-.67.33a1.44 1.44 0 0 0-.54 1.2c0 .33.05.6.15.81.1.2.26.36.46.46.2.1.45.14.73.14a2.04 2.04 0 0 0 2.04-1.6l.21.46a2.74 2.74 0 0 1-.73 1.26 2.23 2.23 0 0 1-1.6.64c-.41 0-.77-.08-1.07-.24-.3-.15-.54-.39-.7-.7a2.5 2.5 0 0 1-.25-1.17c0-.34.05-.65.17-.94.12-.29.3-.53.52-.74.24-.22.53-.38.88-.5s.76-.18 1.22-.18h1.41Zm8.65.74h-1.03v-.57h.97a2 2 0 0 0 .87-.16c.2-.1.36-.25.46-.45.1-.2.14-.42.14-.68 0-.25-.05-.48-.15-.7-.1-.2-.26-.37-.48-.5-.22-.13-.51-.19-.88-.19-.28 0-.54.06-.77.19-.23.12-.42.29-.57.5a1.3 1.3 0 0 0-.2.74H154a1.99 1.99 0 0 1 1.17-1.87c.35-.18.73-.26 1.14-.26.36 0 .68.04.95.13.28.1.53.23.72.41.2.18.35.4.45.66.1.26.16.56.16.9a1.78 1.78 0 0 1-.57 1.3 2 2 0 0 1-.69.4c-.27.1-.58.15-.92.15Zm-1.03-.4h1.03c.38 0 .71.05 1 .14.28.08.52.2.71.37.2.16.34.36.44.6.09.25.14.52.14.83 0 .34-.06.65-.17.92-.12.27-.28.5-.5.68-.2.18-.46.32-.75.42a2.95 2.95 0 0 1-2.1-.09c-.37-.16-.68-.4-.92-.74a2.15 2.15 0 0 1-.36-1.28h.76a1.5 1.5 0 0 0 .8 1.35c.25.14.53.21.85.21.36 0 .66-.06.9-.18.24-.13.42-.3.54-.52.12-.22.18-.47.18-.75 0-.33-.06-.6-.18-.8-.1-.2-.28-.35-.52-.45-.23-.1-.53-.14-.88-.14h-.97v-.56Zm9.68 2.63 3.25-6.05h.76V51h-.76v-6.05L165.06 51h-.76v-7.4h.75v6.05Zm14.11-2.75v.72h-3.6v-.72h3.6Zm-3.41-3.3V51H175v-7.4h.76Zm4 0V51h-.75v-7.4h.76Z"/><path fill="#E1A661" d="M13.31 27.64a11 11 0 0 1-6.11-1.7 11.2 11.2 0 0 1-4.06-4.73 16.5 16.5 0 0 1-1.41-7.01c0-2.65.5-4.98 1.5-7 1-2.03 2.4-3.61 4.2-4.74a11.49 11.49 0 0 1 6.2-1.7c2.2 0 4.06.55 5.57 1.66L21.15.76h.67V8.7h-.67l-2.11-5.28a8.19 8.19 0 0 0-5.4-1.92A7.3 7.3 0 0 0 9.6 2.65 7.82 7.82 0 0 0 6.82 6c-.67 1.47-1 3.22-1 5.25v5.85c0 2.03.31 3.78.93 5.25a7.9 7.9 0 0 0 2.63 3.4 6.84 6.84 0 0 0 3.93 1.14c1.84 0 3.26-.56 4.26-1.7a6.51 6.51 0 0 0 1.53-4.54V17.7l-2.97-.45v-.7h9.57v.7l-2.98.45v2.97c0 1.22-.33 2.36-1 3.43a7.11 7.11 0 0 1-3.1 2.56c-1.4.66-3.17.99-5.3.99Zm22.07-.32a8.44 8.44 0 0 1-4.19-1.06 8.07 8.07 0 0 1-3-3.04 9.23 9.23 0 0 1-1.1-4.5c0-1.7.37-3.19 1.1-4.49a8.24 8.24 0 0 1 7.2-4.1c1.53 0 2.93.37 4.18 1.1 1.26.7 2.26 1.7 2.98 3a8.84 8.84 0 0 1 1.12 4.48c0 1.69-.37 3.2-1.12 4.51a7.84 7.84 0 0 1-7.17 4.1Zm0-.7c1.58 0 2.77-.58 3.55-1.73a7.8 7.8 0 0 0 1.22-4.58v-3.2c0-1.9-.4-3.41-1.22-4.54-.78-1.15-1.97-1.73-3.55-1.73a4.1 4.1 0 0 0-3.58 1.73C31 13.7 30.6 15.2 30.6 17.1v3.2c0 1.9.4 3.43 1.19 4.58a4.1 4.1 0 0 0 3.58 1.73Zm10.3.38v-.64l2.4-.32V2.36l-2.4-.32V1.4h5.6v24.64l2.23.32V27h-7.84Zm17.53.32a7.52 7.52 0 0 1-4-1.06 7.36 7.36 0 0 1-2.69-3c-.64-1.3-.96-2.82-.96-4.55s.32-3.23.96-4.51a7.1 7.1 0 0 1 6.7-4.06c1.23 0 2.3.33 3.22.99a6.57 6.57 0 0 1 2.18 2.65V2.36l-2.24-.32V1.4h5.44v24.64l2.24.32V27h-5.44v-3.33a6.82 6.82 0 0 1-2.18 2.69c-.91.64-2 .96-3.23.96Zm.32-.8c.94 0 1.78-.27 2.53-.8a5.87 5.87 0 0 0 1.82-2.18c.47-.91.72-1.9.74-2.97v-3.68a6.54 6.54 0 0 0-.74-2.95 5.55 5.55 0 0 0-1.82-2.17 4.13 4.13 0 0 0-2.53-.83c-2.96 0-4.45 2.05-4.45 6.17v3.2c0 4.14 1.49 6.21 4.45 6.21Zm14.96 9.82c-1.1 0-2-.27-2.68-.83a2.74 2.74 0 0 1-1.03-2.24c0-.64.18-1.16.55-1.57.38-.38.85-.57 1.4-.57.41 0 .77.08 1.1.25.31.17.57.43.76.77-.32.45-.48.92-.48 1.41a1.43 1.43 0 0 0 1.47 1.47c.51 0 .95-.17 1.31-.51a4.3 4.3 0 0 0 1.03-1.8l1.92-5.5-7.43-15.8-2.14-.32v-.64h7.97v.64l-2.24.38 5.34 11.42 3.81-11-2.75-.8v-.64h5.76v.64l-2.18.8-7.17 20.83a6.66 6.66 0 0 1-1.63 2.75c-.62.58-1.51.86-2.69.86Z"/><path fill="#303030" d="M110.92 27.64c-1.98 0-3.93-.57-5.85-1.7l-2.72 1.38h-.7V19.1h.7l2.75 5.95a10.23 10.23 0 0 0 6.08 1.89c1.88 0 3.42-.5 4.64-1.48a5.1 5.1 0 0 0 1.86-4.19c0-1.3-.4-2.32-1.19-3.07-.79-.77-2.07-1.38-3.84-1.82L107.34 15a7.68 7.68 0 0 1-4.2-2.5 6.63 6.63 0 0 1-1.4-4.22c0-1.47.29-2.77.86-3.9a6.22 6.22 0 0 1 2.6-2.66 8.06 8.06 0 0 1 4.03-.96c1.94 0 3.68.33 5.21 1l2.34-1h.7v6.53h-.7l-2.3-4.67a11.9 11.9 0 0 0-5.22-1.16c-1.86 0-3.32.48-4.38 1.44a4.74 4.74 0 0 0-1.6 3.75c0 1.15.37 2.06 1.12 2.72a8.36 8.36 0 0 0 3.36 1.57l5.72 1.5a7.28 7.28 0 0 1 4.13 2.43c.92 1.13 1.38 2.86 1.38 5.19 0 2.36-.74 4.22-2.21 5.56-1.45 1.35-3.4 2.02-5.86 2.02Zm17.38-.32c-1.4 0-2.54-.35-3.4-1.06-.82-.7-1.24-1.82-1.24-3.36V11.38l-2.27-.32v-.64h2.27V7.77l3.2-.8v3.45h4.16v.64l-4.16.32v11.46c0 2.26.81 3.4 2.43 3.4.34 0 .66-.06.96-.17a3.57 3.57 0 0 0 1.1-.54l.4.51a5.02 5.02 0 0 1-3.45 1.28Zm12.3 0a8.44 8.44 0 0 1-4.19-1.06 8.06 8.06 0 0 1-3-3.04 9.22 9.22 0 0 1-1.1-4.5c0-1.7.37-3.19 1.1-4.49a8.24 8.24 0 0 1 7.2-4.1c1.53 0 2.93.37 4.18 1.1 1.26.7 2.25 1.7 2.98 3a8.85 8.85 0 0 1 1.12 4.48c0 1.69-.37 3.2-1.12 4.51a7.85 7.85 0 0 1-7.17 4.1Zm0-.7c1.58 0 2.76-.58 3.55-1.73a7.8 7.8 0 0 0 1.22-4.58v-3.2c0-1.9-.4-3.41-1.22-4.54-.79-1.15-1.97-1.73-3.55-1.73a4.1 4.1 0 0 0-3.58 1.73c-.8 1.13-1.19 2.64-1.19 4.54v3.2c0 1.9.4 3.43 1.19 4.58a4.1 4.1 0 0 0 3.58 1.73Zm10.51-.26 2.24-.32V11.38l-2.24-.32v-.64h5.44v2.47c1.35-1.84 2.86-2.75 4.55-2.75.8 0 1.52.2 2.14.64.62.4.93.99.93 1.76 0 .55-.18 1.02-.54 1.4-.37.37-.85.55-1.44.55-.69 0-1.24-.27-1.67-.8.24-.3.35-.62.35-.96 0-.36-.12-.65-.38-.87a1.3 1.3 0 0 0-.96-.35c-.45 0-.9.22-1.38.64-.47.4-1 1.05-1.6 1.92v11.97l2.56.32V27h-8v-.64Zm22.8.96c-1.57 0-3-.35-4.28-1.06a8 8 0 0 1-3.04-3.04 8.9 8.9 0 0 1-1.12-4.5c0-1.71.36-3.2 1.09-4.49a7.9 7.9 0 0 1 2.97-3 8.24 8.24 0 0 1 7.81-.2c1.07.6 1.9 1.43 2.5 2.5.6 1.04.9 2.25.93 3.61h-11.78v3.17c0 1.88.42 3.4 1.25 4.58a4.3 4.3 0 0 0 3.68 1.73c1.47 0 2.77-.42 3.9-1.25a5.1 5.1 0 0 0 2.08-3.23h.74a6.01 6.01 0 0 1-2.27 3.77 7.06 7.06 0 0 1-4.45 1.41Zm3.34-10.98c0-1.85-.3-3.23-.87-4.12-.57-.92-1.47-1.38-2.69-1.38a4 4 0 0 0-3.32 1.5 7.04 7.04 0 0 0-1.35 4h8.23Z"/></svg>