<svg xmlns="http://www.w3.org/2000/svg" width="18" height="16" fill="none"><path fill="#303030" d="M9 15.5c-.54-.48-1.15-.97-1.79-1.5-2.27-1.85-4.83-3.94-5.97-6.45A6.19 6.19 0 0 1 .67 5 4.5 4.5 0 0 1 5.25.5 5.13 5.13 0 0 1 9 2.17 5.13 5.13 0 0 1 12.75.5 4.5 4.5 0 0 1 17.33 5c0 .88-.2 1.75-.57 2.55-1.14 2.51-3.7 4.6-5.96 6.45h-.01c-.64.53-1.25 1.03-1.79 1.5ZM5.25 2.17a2.95 2.95 0 0 0-2.08.82A2.79 2.79 0 0 0 2.33 5c.01.64.16 1.27.43 1.86a10.26 10.26 0 0 0 2.13 2.89 35.8 35.8 0 0 0 3.29 2.88l.14.12.68.56.01-.01h.01v-.01h.01l.02-.01.04-.03.01-.01.01-.01.56-.45.14-.12.7-.57a34.9 34.9 0 0 0 2.6-2.32c.87-.83 1.59-1.81 2.12-2.9.28-.58.43-1.22.44-1.87 0-.75-.3-1.47-.84-2a2.95 2.95 0 0 0-2.08-.83c-.95-.01-1.86.39-2.5 1.09L9 4.7 7.74 3.26a3.32 3.32 0 0 0-2.49-1.1Z"/></svg>