<svg xmlns="http://www.w3.org/2000/svg" width="16" height="18" fill="none"><path fill="#C9C9C9" fill-rule="evenodd" d="M9.67 3.58a2.92 2.92 0 1 1 .83 2.05L6.23 8.22a2.92 2.92 0 0 1 .02 1.48l4.35 2.58a2.92 2.92 0 1 1-.85 1.43L5.4 11.14A2.9 2.9 0 0 1 .5 9a2.92 2.92 0 0 1 4.84-2.2l4.38-2.65a2.93 2.93 0 0 1-.05-.57Zm2.91-1.25a1.25 1.25 0 1 0 0 2.5 1.25 1.25 0 0 0 0-2.5ZM3.42 7.75a1.25 1.25 0 1 0 0 2.5 1.25 1.25 0 0 0 0-2.5Zm9.16 5.42a1.25 1.25 0 1 0 0 2.5 1.25 1.25 0 0 0 0-2.5Z" clip-rule="evenodd"/></svg>